<svg width="1200" height="820" viewBox="0 0 1200 820" fill="none" xmlns="http://www.w3.org/2000/svg">
  <defs>
    <linearGradient id="bg4" x1="140" y1="80" x2="1060" y2="760" gradientUnits="userSpaceOnUse">
      <stop stop-color="#0A172B"/>
      <stop offset="1" stop-color="#142C52"/>
    </linearGradient>
    <linearGradient id="gold4" x1="220" y1="100" x2="840" y2="620" gradientUnits="userSpaceOnUse">
      <stop stop-color="#F7DA8A"/>
      <stop offset="0.52" stop-color="#D1A53E"/>
      <stop offset="1" stop-color="#9A700E"/>
    </linearGradient>
  </defs>
  <rect width="1200" height="820" rx="42" fill="url(#bg4)"/>
  <circle cx="980" cy="180" r="160" fill="#D4A83A" opacity="0.08"/>
  <circle cx="200" cy="660" r="190" fill="#D4A83A" opacity="0.08"/>
  <path d="M150 620H1050" stroke="#F3D777" stroke-width="8" stroke-linecap="round" opacity="0.2"/>
  <rect x="170" y="220" width="350" height="270" rx="28" fill="#132B4A" stroke="#D4A83A" stroke-width="4"/>
  <rect x="204" y="266" width="282" height="168" rx="20" fill="#0E1D38"/>
  <path d="M262 386H375" stroke="#F7D679" stroke-width="14" stroke-linecap="round"/>
  <path d="M262 336H436" stroke="#F7D679" stroke-width="18" stroke-linecap="round"/>
  <rect x="604" y="230" width="180" height="180" rx="26" fill="#142E58" stroke="#D4A83A" stroke-width="6"/>
  <path d="M680 268V382" stroke="#F7D679" stroke-width="18" stroke-linecap="round"/>
  <path d="M638 326H722" stroke="#F7D679" stroke-width="18" stroke-linecap="round"/>
  <path d="M884 260L1014 260" stroke="#F4D47D" stroke-width="18" stroke-linecap="round"/>
  <path d="M884 332L980 332" stroke="#F4D47D" stroke-width="18" stroke-linecap="round" opacity="0.8"/>
  <path d="M884 404L1014 404" stroke="#F4D47D" stroke-width="18" stroke-linecap="round"/>
  <path d="M884 476L970 476" stroke="#F4D47D" stroke-width="18" stroke-linecap="round" opacity="0.8"/>
  <text x="160" y="654" fill="#F7D679" font-family="Arial, Helvetica, sans-serif" font-size="52" font-weight="700">OPERATIONS &amp; OUTSOURCING</text>
  <text x="160" y="706" fill="#EAF0FA" font-family="Arial, Helvetica, sans-serif" font-size="24" letter-spacing="6">DELTON FM</text>
</svg>
