<svg xmlns="http://www.w3.org/2000/svg" viewBox="0 0 800 500" width="100%" height="100%">
  <defs>
    <linearGradient id="grad_service-landscaping" x1="0%" y1="0%" x2="100%" y2="100%">
      <stop offset="0%" stop-color="#0D2818" />
      <stop offset="100%" stop-color="#1B4332" />
    </linearGradient>
    <radialGradient id="goldGlow" cx="50%" cy="50%" r="50%">
      <stop offset="0%" stop-color="#C9A227" stop-opacity="0.3" />
      <stop offset="100%" stop-color="#C9A227" stop-opacity="0" />
    </radialGradient>
  </defs>
  <rect width="800" height="500" fill="url(#grad_service-landscaping)" />
  <circle cx="400" cy="250" r="280" fill="url(#goldGlow)" />
  
  <!-- Subtle decorative rings -->
  <circle cx="400" cy="220" r="160" fill="none" stroke="#C9A227" stroke-width="1.5" stroke-dasharray="6 6" opacity="0.4" />
  <circle cx="400" cy="220" r="120" fill="#0B132B" fill-opacity="0.7" stroke="#C9A227" stroke-width="2" />
  
  <!-- Central Icon Container -->
  <g transform="translate(352, 172) scale(4)">
    <path fill="none" stroke="#C9A227" stroke-linecap="round" stroke-linejoin="round" stroke-width="1.5" d="M5 3v4M3 5h4M6 17v4m-2-2h4m5-16l2.286 6.857L21 12l-5.714 2.143L13 21l-2.286-6.857L5 12l5.714-2.143L13 3z" />
  </g>
  
  <!-- Title Badge -->
  <rect x="150" y="370" width="500" height="50" rx="25" fill="#0B132B" fill-opacity="0.85" stroke="#C9A227" stroke-width="1.5" />
  <text x="400" y="402" fill="#FFFFFF" font-family="sans-serif" font-size="18" font-weight="bold" text-anchor="middle">Landscaping & Green Area Care</text>
  <text x="400" y="450" fill="#C9A227" font-family="sans-serif" font-size="13" font-weight="600" text-anchor="middle" letter-spacing="1.5">Landscape Design, Planting & Irrigation</text>
</svg>