<svg xmlns="http://www.w3.org/2000/svg" viewBox="0 0 800 500" width="100%" height="100%">
  <defs>
    <linearGradient id="grad_service-hospitality" x1="0%" y1="0%" x2="100%" y2="100%">
      <stop offset="0%" stop-color="#2C1810" />
      <stop offset="100%" stop-color="#4A2810" />
    </linearGradient>
    <radialGradient id="goldGlow" cx="50%" cy="50%" r="50%">
      <stop offset="0%" stop-color="#C9A227" stop-opacity="0.3" />
      <stop offset="100%" stop-color="#C9A227" stop-opacity="0" />
    </radialGradient>
  </defs>
  <rect width="800" height="500" fill="url(#grad_service-hospitality)" />
  <circle cx="400" cy="250" r="280" fill="url(#goldGlow)" />
  
  <!-- Subtle decorative rings -->
  <circle cx="400" cy="220" r="160" fill="none" stroke="#C9A227" stroke-width="1.5" stroke-dasharray="6 6" opacity="0.4" />
  <circle cx="400" cy="220" r="120" fill="#0B132B" fill-opacity="0.7" stroke="#C9A227" stroke-width="2" />
  
  <!-- Central Icon Container -->
  <g transform="translate(352, 172) scale(4)">
    <path fill="none" stroke="#C9A227" stroke-linecap="round" stroke-linejoin="round" stroke-width="1.5" d="M12 6.253v13m0-13C10.832 5.477 9.246 5 7.5 5S4.168 5.477 3 6.253v13C4.168 18.477 5.754 18 7.5 18s3.332.477 4.5 1.253m0-13C13.168 5.477 14.754 5 16.5 5c1.747 0 3.332.477 4.5 1.253v13C19.832 18.477 18.247 18 16.5 18c-1.746 0-3.332.477-4.5 1.253" />
  </g>
  
  <!-- Title Badge -->
  <rect x="150" y="370" width="500" height="50" rx="25" fill="#0B132B" fill-opacity="0.85" stroke="#C9A227" stroke-width="1.5" />
  <text x="400" y="402" fill="#FFFFFF" font-family="sans-serif" font-size="18" font-weight="bold" text-anchor="middle">Hospitality & Catering Management</text>
  <text x="400" y="450" fill="#C9A227" font-family="sans-serif" font-size="13" font-weight="600" text-anchor="middle" letter-spacing="1.5">Kitchen & Cafeteria Solutions & Chefs</text>
</svg>